<?xml version="1.0" encoding="UTF-8" standalone="no"?>
<svg width="932px" height="808px" viewBox="0 0 932 808" version="1.1" xmlns="http://www.w3.org/2000/svg" xmlns:xlink="http://www.w3.org/1999/xlink">
    <!-- Generator: Sketch 41 (35326) - http://www.bohemiancoding.com/sketch -->
    <title>Group</title>
    <desc>Created with Sketch.</desc>
    <defs></defs>
    <g id="Page-1" stroke="none" stroke-width="1" fill="none" fill-rule="evenodd">
        <g id="Group" transform="translate(466.400000, 404.000000) scale(1, -1) translate(-466.400000, -404.000000) translate(0.900000, 0.000000)" fill="#000000">
            <path d="M0.1,781 C0.3,759.2 0.6,753.7 1.7,752.6 C2.5,751.8 3.1,750.2 3.1,749.1 C3.1,748 3.5,746.8 4.1,746.5 C4.6,746.2 5.1,745 5.1,743.8 C5.1,742.6 5.9,741.6 7.1,741.3 C7.1,738.3 7.2,737.5 8.5,736.1 C9.5,735 10.1,733.3 9.9,732.2 C9.7,731.2 10.1,729.7 10.7,728.9 C11.3,728.1 12.6,725.2 13.5,722.4 C14.4,719.6 16.3,716.2 17.6,715 C19,713.7 20.1,712.1 20.1,711.5 C20.1,710.8 21,709.5 22,708.6 C23.1,707.6 24,705.6 24,704.2 C23.9,702.7 24.8,698.4 25.9,694.6 C27,690.8 27.7,687.1 27.4,686.3 C27.1,685.5 27.8,683.9 29,682.6 C30.1,681.4 31.5,678.2 32.1,675.4 C32.7,672.7 33.4,669.2 33.7,667.7 C34.1,666.1 35.3,664.5 36.4,664.1 C37.8,663.6 38.5,662.2 38.7,659.4 C39,657.3 39.2,654.9 39.3,654.3 C41.5,653 42,652.7 42,652.3 C42.3,650 42.4,648.2 42.5,646.5 C42.6,644.3 43.3,643.2 45.4,642.2 C47.5,641.2 48.1,640.2 48.1,637.8 C48.1,636.1 48.7,634.2 49.5,633.6 C50.3,633 51.5,629.6 52.2,626 C53.1,621.4 54.4,618.3 56.8,615.3 C58.6,613 60.1,610.4 60.1,609.5 C60.1,607.4 63.6,600.7 65.5,599.1 C66.4,598.3 67.1,597.1 67.1,596.4 C68.3,595 70,592.6 71.8,589.8 C73.5,586.9 76.1,583.4 77.5,582.1 C78.9,580.7 80.1,579.3 80.1,578.9 C80.1,576.5 93.4,560 95.3,560 C97.2,560 101.9,554.4 102.6,551.2 C102.9,549.5 104.6,546.8 106.2,545.3 C107.9,543.7 109.8,541.2 110.6,539.5 C111.3,537.9 113.2,535.1 114.7,533.5 C116.3,531.8 118.4,529.3 119.3,528 C120.3,526.6 122.5,523.5 124.2,521 C128.4,515 134.9,508.9 148.1,498.8 C151.1,496.5 154.8,493.3 156.4,491.8 C157.9,490.3 159.4,489 159.7,489 C160,489 162.3,487.3 164.9,485.2 C167.5,483.1 170.9,480.7 172.5,479.9 C174.2,479.2 176.6,477.5 178,476.2 C179.3,475 180.9,474.1 181.4,474.3 C181.9,474.4 183.9,473.1 185.9,471.3 C187.9,469.5 190.3,468 191.2,468 C192.1,468 193.1,467.1 193.4,466 C193.9,464 196.1,463.2 196.1,465 C196.1,466.8 202.6,466.1 204.3,464.1 C205.2,463 207.7,461.8 209.8,461.5 C211.9,461.1 216.8,459.9 220.6,458.9 C224.5,457.8 229.8,456.5 232.5,456 C238.6,454.9 264.2,455.5 273.1,457 C276.7,457.6 285.5,458.5 292.6,459 C299.8,459.4 307.5,460.2 309.9,460.6 C314.1,461.3 319.1,459.8 319.1,457.9 C319.1,456.8 325.9,446.1 328.5,443.1 C329.7,441.8 331.5,439.7 332.7,438.5 C333.9,437.2 335.1,435.5 335.4,434.6 C337.6,433 338.1,432.3 338.1,431.5 C338.1,430.7 339,429.1 340,428.1 C341.1,427 343.4,423.5 345.2,420.3 C348.6,414.2 355.1,405 358.2,401.9 C359.3,400.8 360.1,399.4 360.1,398.8 C360.1,398.1 361,396.4 362.1,395 C363.2,393.6 364.1,391.8 364.1,390.9 C364.1,388.8 367.6,385.7 369.3,386.2 C370.9,386.8 373.1,384.7 373.1,382.6 C376,381 376.2,380.3 375.8,378.2 C375.3,375.9 375.9,374.6 378.8,371.5 C380.9,369.3 382.5,366.2 382.9,364.1 C383.7,359 388,350.8 390.2,350.3 C392.5,349.7 395.3,344.3 394.6,342 C393.8,339.5 396.3,334.2 400.4,329.6 C401.4,328.4 402.5,326.2 402.8,324.7 C403.1,323.1 404,321.6 404.7,321.3 C405.3,319.6 406,319 407,318.7 C408.1,318.4 409.2,317 409.6,315.1 C410,313.4 410.6,312 411.1,312 C411.8,312 413.3,308.7 413.5,306.3 C414.8,304 415.1,302.6 415.1,301.3 C415.1,300.1 416,298.1 417.1,297 C418.2,295.9 419.1,294.4 419.1,293.6 C420.7,291.2 421.1,290.1 421.1,289 C421.1,288 421.8,287 422.6,286.6 C423.4,286.3 424.1,285.3 424.1,284.3 C424.1,283.4 426,280.1 428.4,277.1 C430.7,274 433.4,269.8 434.3,267.8 C435.3,265.8 437.2,263.3 438.6,262.4 C440,261.5 441.1,260.2 441.1,259.6 C441.1,259 442.6,256.2 444.5,253.4 C446.3,250.5 448.1,247.1 448.5,245.7 C448.8,244.2 450,242.6 451.1,242 C452.3,241.4 453.1,239.9 453.1,238.5 C453.1,236.9 454,235.7 455.8,234.8 C458.1,233.7 458.6,232.8 458.3,230.2 C458.2,228.4 458.5,227 459.1,227 C460.1,222.9 468.3,208.3 474.7,199.9 C477,196.9 479.1,193 479.5,191.2 C479.8,189.1 482.3,185.4 486.1,181.2 C492.2,174.4 496.1,168.2 496.1,165.6 C496.1,164.8 496.7,163.7 497.4,163.3 C499.2,162.2 503.1,154.4 503.1,152 C503.1,151 503.7,149.5 504.4,148.8 C505.2,148.1 506.1,146.3 506.4,144.8 C506.8,143.3 509.9,138.8 513.2,134.8 C516.6,130.8 520.2,125.7 521.3,123.5 C522.4,121.4 524.5,118.7 526,117.6 C527.4,116.4 529.7,114.2 531.1,112.6 C532.5,111 535.2,107.8 537.2,105.6 C539.2,103.3 541.1,100.7 541.4,99.8 C543.6,98 544.1,97.1 544.1,96 C544.1,94.9 545,93.5 546.1,92.8 C547.2,92.1 548.1,90.9 548.1,90.2 C550.6,88 551,87.1 550.6,86.2 C549.8,83.9 554.6,75 559.7,69.6 C562.1,67 564.9,62.9 566,60.4 C567.1,58 568.4,56 568.9,56 C569.5,56 571.1,54 572.5,51.5 C574,49 575.5,47 575.9,47 C576.3,46.9 578.4,44.4 580.6,41.4 C583.2,37.9 585.6,35.7 587.3,35.4 C588.7,35 590.1,34 590.4,32.9 C590.7,31.9 592.9,30.2 595.4,29 C597.9,27.8 600.1,26 600.4,24.9 C600.7,23.8 601.8,23 602.9,23 C604,23 605.1,22.4 605.4,21.7 C605.6,21.1 607.8,19.4 610.2,18.1 C612.6,16.8 617.8,14.1 621.6,12 C625.5,10 630.9,7.7 633.6,7.1 C648.1,3.5 651.6,2.9 662.9,1.5 C677.7,-0.3 690.2,0.6 703.6,4.5 C713.5,7.3 724.7,12.4 730,16.4 C731.9,17.8 733.8,19 734.3,19 C735.4,19 739.3,22.5 746.7,30 C756.7,40.3 764.8,54 769.6,68.6 C772.4,77 772.7,82 770.9,85 C769.9,86.6 769.9,87.2 771.4,88.3 C773.5,89.8 775,98 773.2,98 C771.6,98 771.8,101 773.5,101.6 C774.7,102.1 774.7,102.5 773.5,104.8 C771.6,108.6 771.7,109.5 774.7,111.5 C776.8,112.9 777.1,113.6 776.5,116.3 C776.2,118.1 775.6,120 775.3,120.5 C774.9,121.1 774.8,122.5 775,123.8 C775.1,125.2 774.7,126 773.7,126 C772.2,126 770.2,131.5 769.6,137.5 C769.4,139.2 768.8,141.8 768.2,143.4 C767.5,145 767.3,146.5 767.6,146.8 C766.5,149.3 766.2,152.1 766.4,155 C766.6,157.8 766.4,160.3 765.9,160.6 C765.1,156.2 763.2,158.2 762.6,162.3 C762.2,164.6 761.1,167.4 760.1,168.5 C758.1,170.9 755.1,178.2 755.1,181 C753.7,183 753,184.4 752.6,186.1 C752.2,187.7 750.1,193 747.9,197.8 C745.7,202.6 742.9,208.8 741.6,211.5 C740.3,214.3 738.6,218.8 737.8,221.5 C735.7,228.4 732.3,235.9 729.5,239.6 C728.2,241.3 727.1,243.4 727.1,244.3 C725.6,246 725.1,246.7 725.1,247.5 C722.5,250.6 719.4,255.9 716.1,263 C712.8,269.9 699.2,296.6 697.1,300 C695.3,303 684.3,326.6 683.6,329 C682.9,331.5 662.9,372.2 656.7,384 C654.8,387.5 652.5,391 651.6,391.7 C650.6,392.4 650.2,393.4 650.7,394.1 C651.1,394.9 650.4,396.2 648.6,397.6 C647.1,398.8 645.7,400.8 645.6,402.2 C645.3,404.9 643.3,408.5 634.2,422.3 C630.7,427.6 627.4,432 626.9,432 C626.1,435 625,437.1 623.7,438.7 C620.7,442.3 615.8,450.1 616.3,450.5 C616.5,450.7 619.4,451.3 622.7,451.9 C630,453 640.5,452.3 644.4,450.3 C645.9,449.6 647.5,449.1 647.9,449.4 C648.3,449.6 651.9,449.5 655.9,449 C673.9,447 685.3,451.6 700.7,466.8 C711.5,477.4 718,486.4 723,497.2 L726.1,504 L733.1,503.8 C737.1,503.8 740.7,504.2 741.3,504.8 C742.1,505.6 743,505.6 744.3,504.9 C746.7,503.6 756.3,504.7 761.1,506.7 C763,507.6 765.5,508.4 766.6,508.6 C775.9,510 798.9,515.5 802,516.9 C811.3,521.4 813.9,523.1 818.8,528.4 C821.9,531.7 825.9,536.7 827.6,539.5 C832.2,546.6 839.5,562.2 842.5,571 C844.8,578 844.9,579 843.9,585.2 C843.2,588.9 843,592.2 843.4,592.6 C843.8,593 845.2,592.8 846.6,592.2 C848,591.5 852,591 855.3,591 C861.7,591 877.9,593.6 879.6,595 C880.2,595.4 881.7,596.1 883.1,596.5 C884.5,596.9 887.9,598.3 890.8,599.6 C893.6,600.9 896.5,602 897.1,602 C897.7,602 901.7,605.5 905.9,609.8 C912.3,616.2 914.7,619.6 919.7,629.5 C923.1,636.1 926.7,644.1 927.7,647.3 C928.7,650.4 929.8,653 930.3,653 C930.7,653 930.7,696 930.2,696 C929.7,696 928.8,699.7 928.1,704.2 C927.5,708.8 925.8,716.1 924.4,720.5 C920.9,731.4 903.6,766.7 893.4,783.5 C892.7,784.6 891.7,786.5 891.2,787.8 C890.6,789 889.4,790 888.5,790 C887.7,792 886.4,794.6 884.5,797.1 C882.6,799.5 880.1,803 878.9,804.7 L876.6,808 L862.2,808 C848.6,808 847.9,807.9 849.3,806.3 C850.2,805.3 852.1,802.1 853.6,799.3 C855.1,796.4 856.7,794 857.2,794 C858.1,792.4 859.3,790.1 860.9,787.7 C866.7,778.8 878.1,757.3 878.1,755.3 C878.1,754.5 883.6,743.7 886.6,738.5 C890.3,732.3 891.7,729.1 894.1,721 C895.3,716.9 896.8,712.6 897.3,711.6 C898.6,709.1 899.2,659.3 898,651.1 C896.9,644.1 894.5,638.1 889.8,630.8 C884.7,622.8 874.2,619.6 860.9,621.9 C857.4,622.5 851.8,623.2 848.5,623.5 C845.3,623.8 840.8,624.5 838.6,625 C836.4,625.5 833.5,626.1 832.1,626.2 C830.4,626.4 829.5,627.2 829.3,628.8 C829.1,630 828.3,631 827.5,631 C826.1,634.7 820.9,644.6 817,649.6 C814.9,652.4 813.1,655.6 813.1,656.7 C813.1,657.8 811.9,659.7 810.5,661.1 C807.6,663.8 801.1,673.2 801.1,674.7 C801.1,675.2 800.1,676.5 799,677.6 C797.8,678.6 795.3,681.9 793.4,684.8 C789.2,691.3 788.2,692.6 780.7,700.7 C773.5,708.5 769.2,714.1 769.1,715.8 C769.1,717.4 766.4,717.3 765.4,715.6 C765,714.9 762.1,713.4 759,712.3 C752.8,710.1 745.1,704.5 745.1,702.3 C745.1,700.7 746.8,697.2 748.5,695.3 C749.1,694.6 751.3,691.9 753.3,689.3 C755.4,686.6 760.1,680.7 763.9,676 C767.7,671.3 772,665.2 773.5,662.4 C775,659.6 778.7,654 781.7,650.1 C784.7,646.1 787.1,642.6 787.1,642.2 C787.1,641.5 788.4,640 796.5,631.7 C799.6,628.5 802.9,624.4 803.7,622.7 C805.3,619.7 805.3,619.5 802.8,617.4 C800.5,615.4 799.5,612.3 799.9,607.9 C800,606.9 802.5,605 805.4,603.5 C808.2,602 811.1,600.4 811.7,599.9 C813.7,598.3 816.4,581.5 815.7,575.8 C815,570.7 810.6,562.1 803.7,552 C799.5,546 798.3,543.9 797.2,541.4 C796.7,540.2 795,539 793.4,538.7 C791.9,538.4 788.1,537.6 785,537.1 C781.9,536.5 775.4,534.9 770.5,533.4 C762.4,531.1 760.6,530.9 750.6,531.5 C729.1,532.7 725.9,534.5 723.2,546.8 C718,571.1 694.7,619.1 677.8,640.2 C669,651.1 666.6,653.6 658.7,659.5 C654.5,662.5 651.1,665.4 651.1,665.9 C651.1,666.3 649.4,666.6 647.4,666.5 C643.7,666.4 643.6,666.3 640.7,659.5 L637.9,652.6 L639.5,646 C644,628.1 645.1,624.7 646.4,623.2 C647.2,622.2 648.1,620.3 648.5,618.9 C648.8,617.4 651.5,612.7 654.4,608.4 C657.3,604 660.9,598.3 662.5,595.7 C664,593 665.9,590.6 666.7,590.3 C668.1,587.8 668.4,587 668.8,586.8 C669.3,586.7 670.6,584.5 671.9,582 C673.1,579.5 676.6,574.5 679.6,570.7 C682.6,567 685.1,563.3 685.1,562.5 C687.1,561 691.7,550.3 692.5,545.9 C692.9,543.8 693.8,540.9 694.6,539.3 C695.4,537.7 696.3,533.5 696.6,529.9 C697,526.4 697.3,523.1 697.5,522.5 C697.7,522 697.2,517.6 696.5,512.7 C694.6,500.1 690.9,493.2 680.5,483 L672,474.7 L659.3,475.4 C652.3,475.8 639.9,476.2 631.6,476.4 C622.2,476.5 615.8,477.1 614.4,477.8 C613.2,478.5 611.3,479 610.2,479 C608.1,481 604.7,480.7 601.7,479.5 C599.7,478.6 597.2,479.7 595.9,482.1 C592.2,488.9 584.6,501.1 579.4,508.7 C575.9,513.8 573.1,518.4 573.1,519 C571.8,520 570.9,521.2 570.2,522.7 C569.5,524.2 566.1,530 562.5,535.7 C559,541.3 556.1,546.1 556.1,546.4 C556.1,547 552.8,551.8 547.4,559.1 C543,565.1 533.5,582.4 530.5,590 C529.5,592.5 527.6,596.1 526.3,598 C525,599.9 523.7,602.7 523.4,604.2 C523.1,605.7 522.3,607.1 521.6,607.4 C519.9,608 508.1,598.9 506.4,595.6 C505.3,593.6 505.3,592.1 506.2,588.3 C507.8,581.4 511.9,568.5 514.6,561.5 C515.9,558.2 517.7,553.3 518.7,550.5 C519.7,547.8 521.1,544.6 521.8,543.5 C522.5,542.4 523.1,540.8 523.1,539.9 C523.1,538.1 530.1,524.2 533.2,519.8 C534.3,518.4 535.1,516.8 535.1,516.3 C535.1,515.8 536.3,514.3 537.7,512.9 C539.9,510.8 543.5,504.2 556.8,477.6 C558,475.2 559.5,472.9 560,472.5 C561.1,469.4 561.9,467.7 563,466.6 C564,465.4 566.1,462.3 567.6,459.5 C569.1,456.8 570.9,453.8 571.7,452.9 C572.5,452.1 573.1,451 573.1,450.5 C573.1,450 573.7,448.9 574.5,448.1 C575.3,447.2 577,443.8 578.3,440.5 C579.7,437.2 582.6,432 584.9,429 C587.2,426 589.1,422.6 589.1,421.5 C589.1,420.4 589.8,418.2 590.7,416.5 C591.6,414.9 592.9,412.5 593.6,411.2 C594.3,409.9 596.2,407.4 597.7,405.7 C604.1,398.6 608.5,392.5 612.4,385.2 C614.6,381 617.2,377 618,376.3 C617.9,373.5 614.1,374.9 614.1,376.3 C614.1,377 613.2,378.1 612.1,378.8 C610.9,379.5 610.2,380.8 610.3,381.8 C610.6,383.2 609.9,383.4 606.6,383.1 C604.4,382.9 600.6,381.8 598.1,380.5 C595.6,379.3 590.9,377.5 587.6,376.5 C576.9,373.4 565.8,366.9 566.3,364.1 C566.7,362.2 576.2,360.3 589.1,359.5 C596.5,359.1 599.2,358.5 601.4,356.9 C603,355.8 604.9,355.1 605.8,355.4 C606.7,355.8 608.8,354.9 610.7,353.5 C613.5,351.4 614.1,350.2 614.1,347.2 C614.1,345.2 613.2,341.5 612.1,339.1 C611,336.7 610.1,334.4 610.1,333.9 C610.1,333.4 608.1,330 605.7,326.3 C601,319 594.2,313.4 581.9,306.6 C570.1,300.1 566.7,300.1 567.4,306.9 C567.9,310.8 570.5,313.8 575.4,315.7 C577.5,316.6 579.6,318.1 580.1,319.1 C580.7,320.1 583.2,322.1 585.6,323.6 C588.4,325.2 590.1,326.9 590.1,328.1 C591.9,330 591.6,330.6 590.5,331.4 C594.6,330.3 596.5,331.3 595,334.2 C594,336.1 593.2,336.2 583.6,335.8 C574.5,335.5 572.9,335.2 570.8,333.2 C569.5,332 566.3,330.3 563.5,329.3 C558.6,327.7 556.5,326.4 545.7,319 C542.5,316.8 539.6,315 539.2,315 C538.8,315 537.6,314.2 536.5,313.1 C535.4,312.1 531.3,309.1 527.5,306.5 C516.3,298.7 513.9,296 511.5,288 C510.7,285.4 510.2,277.8 510.9,278.4 C511.3,278.8 512.6,277.9 517.5,273.4 C520.3,270.9 521.9,270.9 535.1,273.5 C536.5,273.7 539,274.2 540.6,274.5 C542.3,274.9 545.9,275.7 548.6,276.5 C551.4,277.2 556.1,278.4 559.1,279 C564.8,280.3 570.8,282.6 577.6,286.2 C585,290.1 599.6,299.2 602.7,301.9 C604.5,303.3 608,306.3 610.6,308.5 C615.2,312.3 626.1,325.1 626.1,326.6 C626.1,327 626.7,328.1 627.4,328.9 C628.1,329.8 629.8,333.3 631.2,336.8 C632.5,340.2 633.8,343 634.1,343 C634.9,343 640.1,334.5 640.1,333.2 C640.1,332.6 641,331.6 642.1,331 C643.2,330.4 644.1,329.3 644.1,328.5 C645.5,327 646.3,326.1 646.6,324.9 C647,323.7 648.8,321.1 650.6,319.1 C652.4,317.1 654.2,314.1 654.5,312.3 C654.9,310.6 655.8,308.9 656.6,308.7 C657.3,308.4 658.2,306.8 658.6,305.1 C658.9,303.5 659.8,301.6 660.6,301 C661.3,300.4 662.3,298 662.6,295.7 C663,293.4 663.7,290.9 664.2,290 C664.6,289.2 665.4,286.7 666,284.5 C667.5,278.2 669.6,273.3 671.4,271.2 C672.3,270.2 673.1,269.1 673.1,268.7 C673.1,267.9 682,255.2 683.1,254.5 C684.2,253.8 691.4,238.8 693.6,232.5 C694.6,229.8 696.2,226.4 697.3,225.1 C698.3,223.8 699.1,221.9 699.1,220.9 C699.1,219.9 700.1,217.4 701.3,215.4 C702.5,213.4 703.7,209.9 703.9,207.7 L704.2,203.8 L699.9,204.4 C689.6,205.9 675,207 671.5,206.6 C665,205.8 641.2,204.1 631.1,203.6 C619.3,203.1 611.1,201 602.9,196.5 C599.4,194.6 594.5,191.9 592,190.6 C588.1,188.5 576,177.3 567.6,168 C564.8,164.9 562.1,159.7 562.1,157.3 C562.1,156.3 561.4,154.2 560.6,152.6 C559.8,151.1 559.3,149.4 559.6,149 C558.5,147.1 558.3,145.9 558.7,144.7 C559.7,141.1 544.1,162.7 538.2,173 C529,189 525.4,195 523.6,197.5 C522.5,199.2 520.8,201.9 520.1,203.5 C519.3,205.2 518.4,206.7 518.1,207 C517.8,207.3 515.6,211.3 513.2,216 C510.8,220.7 508.2,225 507.5,225.6 C506.7,226.2 506.1,227.4 506.1,228.2 C506.1,229.1 505.4,230.3 504.6,231 C503.8,231.7 503.1,232.6 503.1,233.1 C503.1,234.2 493.2,250.4 487.4,258.7 C485,262.1 482.6,266.1 482.1,267.5 C481.6,268.9 480.4,270.3 479.6,270.6 C478.1,273.4 477.7,274 477.3,274 C476.8,274 475.7,275.5 474.8,277.3 C473.8,279 472,282.3 470.6,284.5 C469.2,286.7 467.6,289.5 467.1,290.8 C466.6,292 465.6,293 464.9,293 C463.6,293 459.1,299.2 459.1,301 C459.1,301.5 458,302.7 456.6,303.6 C455.2,304.5 454.1,306 454.1,306.9 C454.1,307.8 453,309.8 451.6,311.4 C450.2,313 449.1,315 449.1,315.9 C449.1,318.7 445.3,327.5 444.2,327.3 C442.9,327 440.8,330.7 441.4,332.3 C441.6,333 440.7,334.8 439.5,336.3 C438.2,337.9 437.1,340.2 437.1,341.4 C437.1,342.6 436.7,344 436.2,344.6 C435.7,345.1 433.9,348.2 432.1,351.5 C426.7,361.4 412,384 410.9,384 C410.4,384 409,386.5 407.6,389.6 C406.2,392.7 403.8,396.8 402.1,398.6 C400.5,400.5 398.2,403.8 397.2,405.9 C394.6,410.8 384.3,426.2 383,427.1 C380.7,434.3 379.4,436.9 376.4,440 C374.5,441.9 372.8,444.5 372.5,445.8 C372.1,447 371.5,448 371.1,448 C370.7,448 369.6,449.6 368.7,451.5 C367.7,453.5 364.2,459.2 360.7,464.3 C357.3,469.3 354.4,473.9 354.4,474.3 C354.3,474.8 352.8,476.9 350.9,479.1 C346.6,484.3 344.1,488.9 344.1,491.5 C344.1,492.7 342.7,494.9 341,496.6 C338.3,499.1 335.1,503.5 329.3,512.5 C328.6,513.6 327.2,515.9 326.1,517.5 C325,519.2 323.8,521.5 323.5,522.8 C323.1,524.1 322,526.1 320.8,527.4 C319.7,528.6 317.9,531.2 316.7,533.2 C308.5,547 292,568.2 282,578 C278,581.9 276.2,584.5 275.7,587 C275.4,589 273.9,591.9 272.3,593.6 C270.8,595.3 269,597.8 268.2,599.3 C267.4,600.8 266.2,602 265.6,602 C264,602 253,615 251.9,618.2 C251.3,619.8 250.5,620.7 250,620.4 C249.1,622.3 248.7,623 248.2,623 C246.8,623 246.2,626.8 247.5,627.4 C243.7,629.4 243.4,631.8 245.8,633.5 C247.4,634.7 247.4,634.9 245.8,636.4 C244.1,634.7 243.6,634.3 242,634.7 C240.4,635.2 240,635.9 240.3,638.1 C240.6,639.7 240.4,641 239.9,641 C239.1,639.1 238.2,639.6 237.1,641 C236,642.4 235.4,644.2 235.7,645.1 C235.9,646 235.5,647 234.6,647.4 C233.1,649.9 231.9,651.6 230.6,652.9 C229.2,654.2 228.1,655.9 228.1,656.6 C228.1,657.4 227.6,658.6 227,659.3 C224.5,662.2 221.7,667.6 222,669.3 C220.4,671 220.1,671.8 220.4,672.9 C220.7,674.1 220.3,675.1 219.5,675.4 C218.7,675.7 218.1,676.7 218.1,677.7 C218,679.7 215.1,684.1 215.1,682.2 C215.1,679.6 212,681.3 206.7,686.7 C203.6,689.9 201.1,693.4 201.1,694.5 C201.1,695.6 200.2,697.1 199,697.8 C197.6,698.7 197.1,699.8 197.4,701.1 C197.7,702.1 197.5,703.3 197,703.6 C196.1,702.2 195,703.2 193.6,705.1 C183.1,719.4 183.1,719.3 185.1,723 C186.4,725.4 183.4,732.3 181.3,731.5 C180.6,731.2 179.3,732.3 178.3,734 C177.4,735.6 175.8,737 174.9,737 C172.9,738.2 172.8,740.1 172.6,742 C172.4,744.2 171.5,746 170.2,746.8 C167.5,748.7 167.5,751 170.3,751 C172.9,751 171.6,752.6 168.6,753.2 C167.4,753.4 166.6,754.3 166.6,755.5 C164.7,757.7 163.7,757.8 163.1,757.9 C162.1,761.6 159.9,761.9 152.5,760.5 C148.7,759.8 145.3,759.4 145,759.6 C143.9,760.2 134.9,755.9 132.3,753.5 C130,751.3 129.9,750.9 131.1,748.1 C131.9,746.2 133.1,745 134.2,745 C135.7,745 136,744.5 135.6,742.7 C135.2,741.3 135.7,739.6 136.8,738.3 C137.8,737.1 139.5,734.9 140.6,733.5 C141.7,732.1 143.2,730.3 143.9,729.5 C144.5,728.8 145.1,727.7 145.1,727.2 C145.1,725.4 151.3,718.5 152.7,718.8 C154.1,716.5 155.1,714.4 156.3,712.7 C157.6,710.9 158.5,709 158.3,708.3 C157.9,706.6 161.9,699 163.1,699 C164.1,695.2 166.6,691.1 168.9,689.9 C170.3,689.1 170.9,688.1 170.6,686.9 C170.2,685.7 170.9,684.8 173,683.9 C175.5,682.8 175.9,682.2 175.4,679.8 C174.8,676.9 178.3,671.1 182.3,668.2 C183.3,667.5 184.1,666 184.1,665 C184.1,664 185.2,661.8 186.6,660.2 C188,658.5 189.1,656.8 189.1,656.3 C189.1,655.9 190.4,653.9 192,651.9 C193.7,649.9 195.3,647 195.6,645.4 C196.6,641.3 202.3,629 203.3,629 C204.1,626.6 209.5,619.5 213.3,615.8 C214.9,614.4 216.1,612.5 216.1,611.8 C216.1,609.9 220.3,605 221.8,605 C223,605 224.7,599.5 224.2,597.2 C224.1,596.6 225.1,595.6 226.5,595.1 C229.4,593.9 232.1,590.3 232.1,587.4 C232.1,586.2 233.1,584.8 234.5,584.1 C235.8,583.3 237.1,581.5 237.4,580 C237.8,578.4 238.8,577 240,576.7 C241.2,576.4 242.5,575.1 243,573.7 C243.5,572.3 244.5,570.9 245,570.5 C245.6,570.2 246.1,569 246.1,568 C246.1,567 246.7,565.7 247.4,565.3 C248.1,564.9 249.9,562.3 251.5,559.7 C253,557 254.9,554.6 255.7,554.3 C257.1,551.7 260.2,547.4 264.4,542.9 C265.9,541.3 267.1,539.6 267.1,539.2 C267.1,538.8 269.8,535.6 273.1,532.2 C276.6,528.5 279.1,525 279.1,523.7 C279.1,522.5 280.9,520 283.2,517.8 C285.4,515.8 287.4,513.1 287.6,511.9 C288.1,509.5 289.8,507.1 292.4,505.1 C293.7,504.2 294.1,503 293.7,501.4 C294.6,499 295.1,498.1 295.1,497.1 C295.1,496 296.4,494.1 298,492.7 C299.7,491.3 300.7,490 300.4,489.7 C300.1,489.3 301.1,487.7 302.5,485.9 C306.7,481 305.4,479.9 293.6,478.6 C290.4,478.3 284.9,477.5 281.5,476.9 C278.1,476.3 272.2,476 268.4,476.3 C260.1,476.8 245.6,479.7 241.9,481.6 C240.5,482.4 237.2,483.7 234.6,484.5 C228.3,486.7 217.3,491.8 216.6,493 C216.3,493.5 214.1,494.8 211.8,495.9 C209.5,497 204.5,499.7 200.6,501.9 C196.8,504.2 192.8,506.2 191.9,506.6 C190.1,508.6 189.5,509 188.7,509 C187.9,509 186.1,510.5 184.6,512.3 C183.1,514 179.8,517.2 177.2,519.3 C170.2,525 165.8,529.2 163.8,532.3 C162.9,533.8 161.6,535 161.1,535 C160.6,535 158.2,537.1 155.9,539.8 C153.5,542.4 150,546.1 148,548 C146.1,549.9 143.4,553.1 142.1,555 C140.8,556.9 138,560.1 136,562 C133.9,563.9 131.7,566.7 131.2,568.3 C130.6,569.8 129.4,571 128.5,571 C127.6,571 124.8,573.1 122.4,575.7 C118.2,580.1 106.6,596.5 102.9,603.2 C102,604.9 100.8,606.6 100.3,606.9 C99.8,607.2 99.2,608.3 98.8,609.3 C96.2,610 96.1,610.1 96.5,610.8 C97.6,612.6 94.3,618 92.6,617.4 C91.4,616.9 91.1,617.7 91.1,621 C91.1,624.5 90.8,625 89.4,624.6 C88,624.2 86.8,625.4 84.3,629.6 C82.6,632.7 80.8,636.3 80.5,637.7 C80.1,639 79.2,640.4 78.5,640.7 C77.1,642.7 76.5,643.8 75.7,644.5 C75,645.3 74,648 73.6,650.6 C72.9,655.2 72.6,656.2 70.2,660.8 C69.6,662 68.9,665.1 68.6,667.6 C68.4,670.1 67.8,672.7 67.3,673.3 C66.8,674 65.2,678.6 63.7,683.5 C61,692.4 58.7,698.9 57,702.2 C56.5,703.2 56.1,704.7 56.1,705.6 C56.1,706.6 54.8,710.2 53.1,713.7 C51.5,717.1 50.1,720.7 50.1,721.5 C50.1,722.3 49.2,723.9 48.1,725 C47,726.1 46.1,727.7 46.1,728.5 C46.1,729.3 45.7,730.8 45.2,731.8 C43.5,735 40.1,743 40.1,743.8 C40.1,744.3 38.5,747.8 36.6,751.7 C34.7,755.6 33.1,759.5 33.1,760.4 C33.1,761.3 32.2,763.7 31.1,765.7 C30,767.8 29.1,770.2 29.1,771 C29.1,771.9 28.7,773 28.1,773.6 C26.9,774.8 25.2,783.6 24.9,789.6 C24.8,792.4 24.3,794 23.5,794 C22.6,794 22.5,794.8 23.2,797.5 C23.8,799.4 24,801.4 23.6,801.9 C23.3,802.4 23.5,804 24.1,805.4 L25.1,808 L12.5,808 L0,808 L0.1,781 Z M367.8,389.8 C367.5,389.1 367.3,389.6 367.3,391 C367.3,392.4 367.5,392.9 367.8,392.3 C368,391.6 368,390.4 367.8,389.8 Z M670.6,184.5 C675.5,184.1 680.8,183.6 682.4,183.3 L685.3,182.7 L684.9,172.1 C684.6,161.6 684.3,160.4 679.2,150.2 C678.3,148.3 675.4,145.3 672.7,143.4 C670.1,141.4 665.5,137.9 662.6,135.5 C650.7,125.8 638.8,126.4 614.6,137.9 C611.3,139.5 604.6,142.5 599.6,144.5 C594.7,146.6 590.3,148.8 589.9,149.4 C588.4,151.6 587.9,161.3 589,164.9 C589.6,167.1 592.4,171 595.5,174.2 C600.8,179.7 601,179.8 607.7,180.4 C611.5,180.7 617.3,181.4 620.6,182 C626.8,183 629.9,183.3 641.6,184.5 C645.5,184.9 648.8,185.4 649,185.6 C649.3,185.8 652.2,185.8 655.5,185.5 C658.9,185.3 665.6,184.8 670.6,184.5 Z M719.2,163.4 C720.3,161 720.9,158.5 720.6,157.9 C720.2,157.4 720.6,154.8 721.5,152.2 C724.9,141.8 726.1,137.6 726.1,135.9 C726.1,134.9 726.6,132.9 727.2,131.3 C727.9,129.8 728.5,127.8 728.7,127 C728.9,126.2 729.5,123.3 730.1,120.5 C730.7,117.8 731.7,113.5 732.2,111 C733.2,106.8 733.3,95.7 732.6,88 C732.4,86.1 732,82 731.7,79 C731.2,72.5 730.9,71.7 726.4,62.1 C724.5,58 722.8,54.2 722.7,53.6 C722.4,51.7 716.4,43.6 712.4,39.8 C706.5,34.2 699.7,30.4 690.4,27.4 C682.6,24.9 681.5,24.8 673.3,25.7 C667.3,26.4 662.8,27.6 658.6,29.6 C655.3,31.2 652.4,32.8 652.1,33.1 C651.8,33.4 650,34.5 648.1,35.5 C642.6,38.3 634,45.5 628.6,51.7 C625.8,54.9 622.4,58.7 620.9,60.3 C619.3,61.9 618.1,63.8 618.1,64.6 C618.1,65.4 617.7,66 617.2,66 C616.7,66 615.3,67.6 614.1,69.5 C612.2,72.6 612.1,73.1 613.6,75.3 C615.2,77.8 614.8,79 612.2,79 C609.8,79 606.1,83.1 606.1,85.9 C606.1,88.7 602.6,106.4 601.6,109.2 C601.2,110.2 601.1,111.7 601.4,112.4 C601.9,113.7 602.5,113.7 605.3,112.2 C608.4,110.6 616.9,108.1 625.6,106 C634.2,104 648.9,106.8 660.7,112.8 C672.4,118.8 693.5,136.1 700.9,145.8 C705,151.2 706.4,154.1 708.1,161 C709.3,165.6 710.5,169.8 710.7,170.2 C711.9,172.1 717.4,167.7 719.2,163.4 Z" id="Shape"></path>
            <path d="M770.6,805.8 C767.9,804.7 764.7,803.6 763.6,803.3 C762.5,802.9 760.5,801.6 759.1,800.2 C756.8,798 756.2,797.9 750.2,798.5 C746.7,798.9 742.9,799.6 741.9,800.1 C740.9,800.6 739.2,801.5 738.1,802 C735.3,803.4 732.1,801.3 732.1,798 C732.1,796.6 731.6,794.9 731,794.3 C730.3,793.6 730.2,792.4 730.6,791.3 C731.4,789.5 731.7,788.5 731.9,786.3 C732,785.7 733.7,784.2 735.6,783 C737.7,781.7 739,780.1 738.9,779.2 C738.6,777.7 740,777.5 748.8,777.2 C756.7,777 759.8,777.3 762.1,778.5 C767.2,781.1 784.1,794.6 794.4,804.3 L798.4,808 L787,807.9 C778.1,807.8 774.5,807.4 770.6,805.8 Z" id="Shape"></path>
            <path d="M697.6,768.8 C696,768.3 693.2,767.2 691.4,766.4 C689.7,765.6 688.1,765 687.8,765 C687.5,765 683.3,763.1 678.5,760.9 C673.3,758.5 666.4,756.1 661.7,755.3 C657.2,754.4 651.6,752.9 649.3,751.8 C645.3,750.1 645,749.7 645.6,747.2 C646.3,744.3 647.7,743 650.3,743 C652.9,743 655.1,741.9 655.1,740.6 C655.1,738.9 662.4,736.7 668.1,736.5 C673.2,736.3 686.7,741.9 687.8,744.7 C688.1,745.5 690.6,748.5 693.3,751.3 C695.9,754 698.1,756.9 698.1,757.6 C698.1,758.4 698.4,759 698.9,759 C699.3,759 700.8,761.2 702.3,763.9 C704.7,768.1 704.9,768.9 703.5,769.4 C701.6,770.1 701.4,770.1 697.6,768.8 Z" id="Shape"></path>
            <path d="M589.6,706.7 C583.6,704.4 573.4,698.3 571.1,695.5 C570.4,694.7 569.4,694 568.8,694 C568.3,694 566.4,693 564.7,691.7 C561.8,689.5 558.7,688.2 548.6,685 C538.7,681.9 531.1,677.3 531.1,674.5 C531.1,673 535.5,671 538.9,671 C543.1,671 546.1,669.9 546.1,668.5 C546.1,667.5 548.4,667.3 556,667.5 C568.3,668 572.6,669.9 582.6,679.7 C590.6,687.4 592.7,691 594,699.5 C594.5,702.8 595.2,706.3 595.6,707.3 C596,708.2 596.2,709 596,708.9 C595.8,708.9 592.9,707.9 589.6,706.7 Z" id="Shape"></path>
            <path d="M457.5,629.1 C449.5,626.2 442.7,622.3 433.7,615.3 C431,613.2 428.1,611.1 427.3,610.5 C426.4,610 424.8,608.7 423.7,607.7 C419.9,604.3 412.8,601.8 401.7,599.8 C382,596.4 380.9,596 379.6,592 C378.4,588.6 378.5,588.4 382.6,584.3 C385.3,581.6 387.8,580 389.3,580 C390.6,580 392.6,579.3 393.8,578.5 C396.7,576.5 419.4,575.9 421.2,577.8 C421.9,578.4 423.6,579 425,579 C427,579 429.1,580.2 435.6,585.2 C436.2,585.6 439,587.8 441.9,590.1 C452.6,598.3 459.9,608.4 463.1,619.5 C464.3,623.4 465.6,627.5 466.1,628.7 C466.6,629.9 466.7,631.1 466.3,631.4 C465.8,631.7 461.9,630.6 457.5,629.1 Z" id="Shape"></path>
        </g>
    </g>
</svg>