<?xml version="1.0" standalone="no"?>
<!DOCTYPE svg PUBLIC "-//W3C//DTD SVG 20010904//EN"
 "http://www.w3.org/TR/2001/REC-SVG-20010904/DTD/svg10.dtd">
<svg version="1.0" xmlns="http://www.w3.org/2000/svg"
 width="932.000000pt" height="818.000000pt" viewBox="0 0 932.000000 818.000000"
 preserveAspectRatio="xMidYMid meet">
<metadata>
Created by potrace 1.13, written by Peter Selinger 2001-2015
</metadata>
<g transform="translate(0.000000,818.000000) scale(0.100000,-0.100000)"
fill="#000000" stroke="none">
<path d="M0 7910 c2 -218 5 -273 16 -284 8 -8 14 -24 14 -35 0 -11 4 -23 10
-26 5 -3 10 -15 10 -27 0 -12 8 -22 20 -25 16 -4 18 -8 9 -19 -9 -11 -8 -19 5
-33 10 -11 16 -28 14 -39 -2 -10 2 -25 8 -33 6 -8 19 -37 28 -65 9 -28 28 -62
41 -74 14 -13 25 -29 25 -35 0 -7 9 -20 19 -29 11 -10 20 -30 20 -44 -1 -15 8
-58 19 -96 11 -38 18 -75 15 -83 -3 -8 4 -24 16 -37 11 -12 25 -44 31 -72 6
-27 13 -62 16 -77 4 -16 16 -32 27 -36 14 -5 21 -19 23 -47 3 -21 5 -45 6 -51
1 -7 7 -13 15 -13 7 0 12 -3 12 -7 -1 -5 0 -12 1 -18 2 -5 3 -23 4 -40 1 -22
8 -33 29 -43 21 -10 27 -20 27 -44 0 -17 6 -36 14 -42 8 -6 20 -40 27 -76 9
-46 22 -77 46 -107 18 -23 33 -49 33 -58 0 -21 35 -88 54 -104 9 -8 16 -20 16
-27 0 -8 3 -14 8 -14 4 0 21 -24 39 -52 17 -29 43 -64 57 -77 14 -14 26 -28
26 -32 0 -24 133 -189 152 -189 19 0 66 -56 73 -88 3 -17 20 -44 36 -59 17
-16 36 -41 44 -58 7 -16 26 -44 41 -60 16 -17 37 -42 46 -55 10 -14 32 -45 49
-70 42 -60 107 -121 239 -222 30 -23 67 -55 83 -70 15 -15 30 -28 33 -28 3 0
26 -17 52 -38 26 -21 60 -45 76 -53 17 -7 41 -24 55 -37 13 -12 29 -21 34 -19
5 1 25 -12 45 -30 20 -18 44 -33 53 -33 9 0 19 -9 22 -20 5 -20 27 -28 27 -10
0 18 65 11 82 -9 9 -11 34 -23 55 -26 21 -4 70 -16 108 -26 39 -11 92 -24 119
-29 61 -11 317 -5 406 10 36 6 124 15 195 20 72 4 149 12 173 16 42 7 92 -8
92 -27 0 -11 68 -118 94 -148 12 -13 30 -34 42 -46 12 -13 24 -30 27 -39 4 -9
11 -16 17 -16 5 0 10 -7 10 -15 0 -8 9 -24 19 -34 11 -11 34 -46 52 -78 34
-61 99 -153 130 -184 11 -11 19 -25 19 -31 0 -7 9 -24 20 -38 11 -14 20 -32
20 -41 0 -21 35 -52 52 -47 16 6 38 -15 38 -36 0 -9 7 -16 16 -16 13 0 15 -7
11 -28 -5 -23 1 -36 30 -67 21 -22 37 -53 41 -74 8 -51 51 -133 73 -138 23 -6
51 -60 44 -83 -8 -25 17 -78 58 -124 10 -12 21 -34 24 -49 3 -16 12 -31 19
-34 8 -3 12 -9 9 -13 -3 -4 4 -10 14 -13 11 -3 22 -17 26 -36 4 -17 10 -31 15
-31 7 0 22 -33 24 -57 1 -6 5 -15 9 -19 4 -4 7 -18 7 -31 0 -12 9 -32 20 -43
11 -11 20 -26 20 -34 0 -8 5 -18 10 -21 6 -3 10 -14 10 -25 0 -10 7 -20 15
-24 8 -3 15 -13 15 -23 0 -9 19 -42 43 -72 23 -31 50 -73 59 -93 10 -20 29
-45 43 -54 14 -9 25 -22 25 -28 0 -6 15 -34 34 -62 18 -29 36 -63 40 -77 3
-15 15 -31 26 -37 12 -6 20 -21 20 -35 0 -16 9 -28 27 -37 23 -11 28 -20 25
-46 -1 -18 2 -32 8 -32 5 0 10 -5 10 -11 0 -30 82 -176 146 -260 23 -30 44
-69 48 -87 3 -21 28 -58 66 -100 61 -68 100 -130 100 -156 0 -8 6 -19 13 -23
18 -11 57 -89 57 -113 0 -10 6 -25 13 -32 8 -7 17 -25 20 -40 4 -15 35 -60 68
-100 34 -40 70 -91 81 -113 11 -21 32 -48 47 -59 14 -12 37 -34 51 -50 14 -16
41 -48 61 -70 20 -23 39 -49 42 -58 4 -10 11 -18 17 -18 5 0 10 -9 10 -20 0
-11 9 -25 20 -32 11 -7 20 -19 20 -26 0 -7 7 -15 16 -19 9 -3 13 -12 9 -21 -8
-23 40 -112 91 -166 24 -26 52 -67 63 -92 11 -24 24 -44 29 -44 6 0 22 -20 36
-45 15 -25 30 -45 34 -45 4 -1 25 -26 47 -56 26 -35 50 -57 67 -60 14 -4 28
-14 31 -25 3 -10 25 -27 50 -39 25 -12 47 -30 50 -41 3 -11 14 -19 25 -19 11
0 22 -6 25 -13 2 -6 24 -23 48 -36 24 -13 76 -40 114 -61 39 -20 93 -43 120
-49 145 -36 180 -42 293 -56 148 -18 273 -9 407 30 99 28 211 79 264 119 19
14 38 26 43 26 11 0 50 35 124 110 100 103 181 240 229 386 28 84 31 134 13
164 -10 16 -10 22 5 33 21 15 36 97 18 97 -16 0 -14 30 3 36 12 5 12 9 0 32
-19 38 -18 47 12 67 21 14 24 21 18 48 -3 18 -9 37 -12 42 -4 6 -5 20 -3 33 1
14 -3 22 -13 22 -15 0 -35 55 -41 115 -2 17 -8 43 -14 59 -7 16 -9 31 -6 34 2
3 0 11 -6 18 -5 7 -8 35 -6 64 2 28 0 53 -5 56 -4 3 -8 -2 -8 -10 0 -34 -19
-14 -25 27 -4 23 -15 51 -25 62 -20 24 -50 97 -50 125 0 11 -4 20 -9 20 -5 0
-12 14 -16 31 -4 16 -25 69 -47 117 -22 48 -50 110 -63 137 -13 28 -30 73 -38
100 -21 69 -55 144 -83 181 -13 17 -24 38 -24 47 0 10 -4 17 -10 17 -5 0 -10
7 -10 15 0 7 -6 18 -12 22 -14 9 -45 62 -78 133 -33 69 -169 336 -190 370 -18
30 -128 266 -135 290 -7 25 -207 432 -269 550 -19 35 -42 70 -51 77 -10 7 -14
17 -9 24 4 8 -3 21 -21 35 -15 12 -29 32 -30 46 -3 27 -23 63 -114 201 -35 53
-68 97 -73 97 -4 0 -8 9 -8 19 0 11 -11 32 -24 48 -30 36 -79 114 -74 118 2 2
31 8 64 14 73 11 178 4 217 -16 15 -7 31 -12 35 -9 4 2 40 1 80 -4 180 -20
294 26 448 178 108 106 173 196 223 304 l31 68 70 -2 c40 0 76 4 82 10 8 8 17
8 30 1 24 -13 120 -2 168 18 19 9 44 17 55 19 93 14 323 69 354 83 93 45 119
62 168 115 31 33 71 83 88 111 46 71 119 227 149 315 23 70 24 80 14 142 -7
37 -9 70 -5 74 4 4 18 2 32 -4 14 -7 54 -12 87 -12 64 0 226 26 243 40 6 4 21
11 35 15 14 4 48 18 77 31 28 13 57 24 63 24 6 0 46 35 88 78 64 64 88 98 138
197 34 66 70 146 80 178 10 31 21 57 26 57 4 0 8 -390 8 -868 l0 -867 -835
-520 c-459 -286 -834 -525 -835 -532 0 -6 214 -762 475 -1680 261 -917 471
-1671 466 -1676 -4 -4 -199 -114 -432 -243 l-423 -234 -1428 0 -1427 0 -403
443 c-222 243 -1308 1434 -2412 2647 -1105 1213 -2019 2216 -2032 2230 l-24
25 0 -2678 0 -2677 4660 0 4660 0 -2 4093 c-2 2250 -4 3839 -5 3530 -2 -314
-7 -563 -12 -563 -5 0 -14 37 -21 82 -6 46 -23 119 -37 163 -35 109 -208 462
-310 630 -7 11 -17 30 -22 43 -6 12 -18 22 -27 22 -9 0 -14 6 -11 13 3 7 -10
33 -29 58 -19 24 -44 59 -56 76 l-23 33 -144 0 c-136 0 -143 -1 -129 -17 9
-10 28 -42 43 -70 15 -29 31 -53 36 -53 5 0 9 -5 9 -10 0 -6 12 -29 28 -53 58
-89 172 -304 172 -324 0 -8 55 -116 85 -168 37 -62 51 -94 75 -175 12 -41 27
-84 32 -94 13 -25 19 -523 7 -605 -11 -70 -35 -130 -82 -203 -51 -80 -156
-112 -289 -89 -35 6 -91 13 -124 16 -32 3 -77 10 -99 15 -22 5 -51 11 -65 12
-17 2 -26 10 -28 26 -2 12 -10 22 -18 22 -8 0 -14 6 -14 13 0 24 -52 123 -91
173 -21 28 -39 60 -39 71 0 11 -12 30 -26 44 -29 27 -94 121 -94 136 0 5 -10
18 -21 29 -12 10 -37 43 -56 72 -42 65 -52 78 -127 159 -72 78 -115 134 -116
151 0 16 -27 15 -37 -2 -4 -7 -33 -22 -64 -33 -62 -22 -139 -78 -139 -100 0
-16 17 -51 34 -70 6 -7 28 -34 48 -60 21 -27 68 -86 106 -133 38 -47 81 -108
96 -136 15 -28 52 -84 82 -123 30 -40 54 -75 54 -79 0 -7 13 -22 94 -105 31
-32 64 -73 72 -90 16 -30 16 -32 -9 -53 -23 -20 -33 -51 -29 -95 1 -10 26 -29
55 -44 28 -15 57 -31 63 -36 20 -16 47 -184 40 -241 -7 -51 -51 -137 -120
-238 -42 -60 -54 -81 -65 -106 -5 -12 -22 -24 -38 -27 -15 -3 -53 -11 -84 -16
-31 -6 -96 -22 -145 -37 -81 -23 -99 -25 -199 -19 -215 12 -247 30 -274 153
-52 243 -285 723 -454 934 -88 109 -112 134 -191 193 -42 30 -76 59 -76 64 0
4 -17 7 -37 6 -37 -1 -38 -2 -67 -70 l-28 -69 16 -66 c45 -179 56 -213 69
-228 8 -10 17 -29 21 -43 3 -15 30 -62 59 -105 29 -44 65 -101 81 -127 15 -27
34 -51 42 -54 8 -3 14 -11 14 -18 0 -7 3 -15 7 -17 5 -1 18 -23 31 -48 12 -25
47 -75 77 -113 30 -37 55 -74 55 -82 0 -8 4 -15 8 -15 12 0 58 -107 66 -151 4
-21 13 -50 21 -66 8 -16 17 -58 20 -94 4 -35 7 -68 9 -74 2 -5 -3 -49 -10 -98
-19 -126 -56 -195 -160 -297 l-85 -83 -127 7 c-70 4 -194 8 -277 10 -94 1
-158 7 -172 14 -12 7 -31 12 -42 12 -12 0 -21 4 -21 9 0 11 -34 8 -64 -4 -20
-9 -45 2 -58 26 -37 68 -113 190 -165 266 -35 51 -63 97 -63 103 0 5 -4 10 -8
10 -5 0 -14 12 -21 27 -7 15 -41 73 -77 130 -35 56 -64 104 -64 107 0 6 -33
54 -87 127 -44 60 -139 233 -169 309 -10 25 -29 61 -42 80 -13 19 -26 47 -29
62 -3 15 -11 29 -18 32 -17 6 -135 -85 -152 -118 -11 -20 -11 -35 -2 -73 16
-69 57 -198 84 -268 13 -33 31 -82 41 -110 10 -27 24 -59 31 -70 7 -11 13 -27
13 -36 0 -18 70 -157 101 -201 11 -14 19 -30 19 -35 0 -5 12 -20 26 -34 22
-21 58 -87 191 -353 12 -24 27 -47 32 -51 6 -3 11 -13 11 -22 0 -9 8 -26 19
-37 10 -12 31 -43 46 -71 15 -27 33 -57 41 -66 8 -8 14 -19 14 -24 0 -5 6 -16
14 -24 8 -9 25 -43 38 -76 14 -33 43 -85 66 -115 23 -30 42 -64 42 -75 0 -11
7 -33 16 -50 9 -16 22 -40 29 -53 7 -13 26 -38 41 -55 64 -71 108 -132 147
-205 22 -42 48 -82 56 -89 9 -6 13 -14 9 -18 -10 -10 -48 4 -48 18 0 7 -9 18
-20 25 -12 7 -19 20 -18 30 3 14 -4 16 -37 13 -22 -2 -60 -13 -85 -26 -25 -12
-72 -30 -105 -40 -107 -31 -218 -96 -213 -124 4 -19 99 -38 228 -46 74 -4 101
-10 123 -26 16 -11 35 -18 44 -15 9 4 30 -5 49 -19 28 -21 34 -33 34 -63 0
-20 -9 -57 -20 -81 -11 -24 -20 -47 -20 -52 0 -5 -20 -39 -44 -76 -47 -73
-115 -129 -238 -197 -118 -65 -152 -65 -145 3 5 39 31 69 80 88 21 9 42 24 47
34 6 10 31 30 55 45 28 16 45 33 45 45 0 10 5 19 12 19 6 0 3 6 -8 14 -10 8
-16 18 -12 22 5 4 17 -1 27 -10 26 -23 45 -13 30 16 -10 19 -18 20 -114 16
-91 -3 -107 -6 -128 -26 -13 -12 -45 -29 -73 -39 -49 -16 -70 -29 -178 -103
-32 -22 -61 -40 -65 -40 -4 0 -16 -8 -27 -19 -11 -10 -52 -40 -90 -66 -112
-78 -136 -105 -160 -185 -8 -26 -13 -102 -6 -96 4 4 17 -5 66 -50 28 -25 44
-25 176 1 14 2 39 7 55 10 17 4 53 12 80 20 28 7 75 19 105 25 57 13 117 36
185 72 74 39 220 130 251 157 18 14 53 44 79 66 46 38 155 166 155 181 0 4 6
15 13 23 7 9 24 44 38 79 13 34 26 62 29 62 8 0 60 -85 60 -98 0 -6 9 -16 20
-22 11 -6 20 -17 20 -25 0 -8 4 -15 9 -15 5 0 13 -9 16 -21 4 -12 22 -38 40
-58 18 -20 36 -50 39 -68 4 -17 13 -34 21 -36 7 -3 16 -19 20 -36 3 -16 12
-35 20 -41 7 -6 17 -30 20 -53 4 -23 11 -48 16 -57 4 -8 12 -33 18 -55 15 -63
36 -112 54 -133 9 -10 17 -21 17 -25 0 -8 89 -135 100 -142 11 -7 83 -157 105
-220 10 -27 26 -61 37 -74 10 -13 18 -32 18 -42 0 -10 10 -35 22 -55 12 -20
24 -55 26 -77 l3 -39 -43 6 c-103 15 -249 26 -284 22 -65 -8 -303 -25 -404
-30 -118 -5 -200 -26 -282 -71 -35 -19 -84 -46 -109 -59 -39 -21 -160 -133
-244 -226 -28 -31 -55 -83 -55 -107 0 -10 -7 -31 -15 -47 -8 -15 -13 -32 -10
-36 3 -5 1 -12 -5 -15 -6 -4 -8 -16 -4 -28 10 -36 -146 180 -205 283 -92 160
-128 220 -146 245 -11 17 -28 44 -35 60 -8 17 -17 32 -20 35 -3 3 -25 43 -49
90 -24 47 -50 90 -57 96 -8 6 -14 18 -14 26 0 9 -7 21 -15 28 -8 7 -15 16 -15
21 0 11 -99 173 -157 256 -24 34 -48 74 -53 88 -5 14 -17 28 -25 31 -8 4 -15
12 -15 20 0 8 -4 14 -8 14 -5 0 -16 15 -25 33 -10 17 -28 50 -42 72 -14 22
-30 50 -35 63 -5 12 -15 22 -22 22 -13 0 -58 62 -58 80 0 5 -11 17 -25 26 -14
9 -25 24 -25 33 0 9 -11 29 -25 45 -14 16 -25 36 -25 45 0 28 -38 116 -49 114
-13 -3 -34 34 -28 50 2 7 -7 25 -19 40 -13 16 -24 39 -24 51 0 12 -4 26 -9 32
-5 5 -23 36 -41 69 -54 99 -201 325 -212 325 -5 0 -19 25 -33 56 -14 31 -38
72 -55 90 -16 19 -39 52 -49 73 -26 49 -129 203 -142 212 -6 3 -12 12 -13 20
-10 52 -23 78 -53 109 -19 19 -36 45 -39 58 -4 12 -10 22 -14 22 -4 0 -15 16
-24 35 -10 20 -45 77 -80 128 -34 50 -63 96 -63 100 -1 5 -16 26 -35 48 -43
52 -68 98 -68 124 0 12 -14 34 -31 51 -27 25 -59 69 -117 159 -7 11 -21 34
-32 50 -11 17 -23 40 -26 53 -4 13 -15 33 -27 46 -11 12 -29 38 -41 58 -82
138 -247 350 -347 448 -40 39 -58 65 -63 90 -3 20 -18 49 -34 66 -15 17 -33
42 -41 57 -8 15 -20 27 -26 27 -16 0 -126 130 -137 162 -6 16 -14 25 -19 22
-5 -3 -9 2 -9 10 0 9 -4 16 -9 16 -14 0 -20 38 -7 44 6 2 1 8 -11 11 -27 9
-30 33 -6 50 16 12 16 14 0 29 -16 16 -17 16 -17 -2 0 -15 -5 -19 -21 -15 -16
5 -20 12 -17 34 3 16 1 29 -4 29 -4 0 -8 -6 -8 -12 0 -7 -9 -2 -20 12 -11 14
-17 32 -14 41 2 9 -2 19 -11 23 -8 3 -15 11 -15 18 0 7 -12 24 -25 37 -14 13
-25 30 -25 37 0 8 -5 20 -11 27 -25 29 -53 83 -50 100 1 9 -3 17 -10 17 -6 0
-9 8 -6 19 3 12 -1 22 -9 25 -8 3 -14 13 -14 23 -1 20 -30 64 -30 45 0 -26
-31 -9 -84 45 -31 32 -56 67 -56 78 0 11 -9 26 -21 33 -14 9 -19 20 -16 33 3
10 1 22 -4 25 -5 3 -9 0 -9 -7 0 -7 -11 3 -25 22 -105 143 -105 142 -85 179
13 24 -17 93 -38 85 -7 -3 -20 8 -30 25 -9 16 -25 30 -34 30 -10 0 -18 3 -19
8 -1 4 -2 23 -4 42 -2 22 -11 40 -24 48 -27 19 -27 42 1 42 26 0 13 16 -17 22
-12 2 -20 11 -20 23 0 11 -6 21 -13 21 -6 1 -16 2 -22 3 -5 0 -10 7 -10 15 0
22 -22 25 -96 11 -38 -7 -72 -11 -75 -9 -11 6 -101 -37 -127 -61 -23 -22 -24
-26 -12 -54 8 -19 20 -31 31 -31 15 0 18 -5 14 -23 -4 -14 1 -31 12 -44 10
-12 27 -34 38 -48 11 -14 26 -32 33 -40 6 -7 12 -18 12 -23 0 -18 62 -87 76
-84 8 2 14 -5 14 -14 0 -9 10 -30 22 -47 13 -18 22 -37 20 -44 -4 -17 36 -93
48 -93 6 0 10 -6 10 -13 0 -25 25 -66 48 -78 14 -8 20 -18 17 -30 -4 -12 3
-21 24 -30 25 -11 29 -17 24 -41 -6 -29 29 -87 69 -116 10 -7 18 -22 18 -32 0
-10 11 -32 25 -48 14 -17 25 -34 25 -39 0 -4 13 -24 29 -44 17 -20 33 -49 36
-65 10 -41 67 -164 77 -164 4 0 8 -5 8 -11 0 -13 54 -84 92 -121 16 -14 28
-33 28 -40 0 -19 42 -68 57 -68 12 0 29 -55 24 -78 -1 -6 9 -16 23 -21 29 -12
56 -48 56 -77 0 -12 10 -26 24 -33 13 -8 26 -26 29 -41 4 -16 14 -30 26 -33
12 -3 25 -16 30 -30 5 -14 15 -28 20 -32 6 -3 11 -15 11 -25 0 -10 6 -23 13
-27 7 -4 25 -30 41 -56 15 -27 34 -51 42 -54 8 -3 14 -10 14 -15 0 -11 31 -54
73 -99 15 -16 27 -33 27 -37 0 -4 27 -36 60 -70 35 -37 60 -72 60 -85 0 -12
18 -37 41 -59 22 -20 42 -47 44 -59 5 -24 22 -48 48 -68 13 -9 17 -21 13 -37
-4 -14 -2 -24 4 -24 5 0 10 -9 10 -19 0 -11 13 -30 29 -44 17 -14 27 -27 24
-30 -3 -4 7 -20 21 -38 42 -49 29 -60 -89 -73 -32 -3 -87 -11 -121 -17 -34 -6
-93 -9 -131 -6 -83 5 -228 34 -265 53 -14 8 -47 21 -73 29 -63 22 -173 73
-180 85 -3 5 -25 18 -48 29 -23 11 -73 38 -112 60 -38 23 -78 43 -87 47 -10 3
-18 10 -18 15 0 5 -6 9 -14 9 -8 0 -26 15 -41 33 -15 17 -48 49 -74 70 -70 57
-114 99 -134 130 -9 15 -22 27 -27 27 -5 0 -29 21 -52 48 -24 26 -59 63 -79
82 -19 19 -46 51 -59 70 -13 19 -41 51 -61 70 -21 19 -43 47 -48 63 -6 15 -18
27 -27 27 -9 0 -37 21 -61 47 -42 44 -158 208 -195 275 -9 17 -21 34 -26 37
-5 3 -11 14 -15 24 -4 11 -12 15 -18 11 -8 -4 -9 -3 -5 4 11 18 -22 72 -39 66
-12 -5 -15 3 -15 36 0 35 -3 40 -17 36 -14 -4 -26 8 -51 50 -17 31 -35 67 -38
81 -4 13 -13 27 -20 30 -8 3 -14 9 -14 15 0 5 -6 16 -14 23 -7 8 -17 35 -21
61 -7 46 -10 56 -34 102 -6 12 -13 43 -16 68 -2 25 -8 51 -13 57 -5 7 -21 53
-36 102 -27 89 -50 154 -67 187 -5 10 -9 25 -9 34 0 10 -13 46 -30 81 -16 34
-30 70 -30 78 0 8 -9 24 -20 35 -11 11 -20 27 -20 35 0 8 -4 23 -9 33 -17 32
-51 112 -51 120 0 5 -16 40 -35 79 -19 39 -35 78 -35 87 0 9 -9 33 -20 53 -11
21 -20 45 -20 53 0 9 -4 20 -10 26 -12 12 -29 100 -32 160 -1 28 -6 44 -14 44
-9 0 -10 8 -3 35 6 19 8 39 4 44 -3 5 -1 21 5 35 l10 26 -126 0 -125 0 1 -270z
m3677 -3912 c-3 -7 -5 -2 -5 12 0 14 2 19 5 13 2 -7 2 -19 0 -25z m3028 -2053
c49 -4 102 -9 118 -12 l29 -6 -4 -106 c-3 -105 -6 -117 -57 -219 -9 -19 -38
-49 -65 -68 -26 -20 -72 -55 -101 -79 -119 -97 -238 -91 -480 24 -33 16 -100
46 -150 66 -49 21 -93 43 -97 49 -15 22 -20 119 -9 155 6 22 34 61 65 93 53
55 55 56 122 62 38 3 96 10 129 16 62 10 93 13 210 25 39 4 72 9 74 11 3 2 32
2 65 -1 34 -2 101 -7 151 -10z m486 -211 c11 -24 17 -49 14 -55 -4 -5 0 -31 9
-57 34 -104 46 -146 46 -163 0 -10 5 -30 11 -46 7 -15 13 -35 15 -43 2 -8 8
-37 14 -65 6 -27 16 -70 21 -95 10 -42 11 -153 4 -230 -2 -19 -6 -60 -9 -90
-5 -65 -8 -73 -53 -169 -19 -41 -36 -79 -37 -85 -3 -19 -63 -100 -103 -138
-59 -56 -127 -94 -220 -124 -78 -25 -89 -26 -171 -17 -60 7 -105 19 -147 39
-33 16 -62 32 -65 35 -3 3 -21 14 -40 24 -55 28 -141 100 -195 162 -28 32 -62
70 -77 86 -16 16 -28 35 -28 43 0 8 -4 14 -9 14 -5 0 -19 16 -31 35 -19 31
-20 36 -5 58 16 25 12 37 -14 37 -24 0 -61 41 -61 69 0 28 -35 205 -45 233 -4
10 -5 25 -2 32 5 13 11 13 39 -2 31 -16 116 -41 203 -62 86 -20 233 8 351 68
117 60 328 233 402 330 41 54 55 83 72 152 12 46 24 88 26 92 12 19 67 -25 85
-68z"/>
<path d="M7705 8158 c-27 -11 -59 -22 -70 -25 -11 -4 -31 -17 -45 -31 -23 -22
-29 -23 -89 -17 -35 4 -73 11 -83 16 -10 5 -27 14 -38 19 -28 14 -60 -7 -60
-40 0 -14 -5 -31 -11 -37 -7 -7 -8 -19 -4 -30 8 -18 11 -28 13 -50 1 -6 18
-21 37 -33 21 -13 34 -29 33 -38 -3 -15 11 -17 99 -20 79 -2 110 1 133 13 51
26 220 161 323 258 l40 37 -114 -1 c-89 -1 -125 -5 -164 -21z"/>
<path d="M6975 7788 c-16 -5 -44 -16 -62 -24 -17 -8 -33 -14 -36 -14 -3 0 -45
-19 -93 -41 -52 -24 -121 -48 -168 -56 -45 -9 -101 -24 -124 -35 -40 -17 -43
-21 -37 -46 7 -29 21 -42 47 -42 26 0 48 -11 48 -24 0 -17 73 -39 130 -41 51
-2 186 54 197 82 3 8 28 38 55 66 26 27 48 56 48 63 0 8 3 14 8 14 4 0 19 22
34 49 24 42 26 50 12 55 -19 7 -21 7 -59 -6z"/>
<path d="M5895 7167 c-60 -23 -162 -84 -185 -112 -7 -8 -17 -15 -23 -15 -5 0
-24 -10 -41 -23 -29 -22 -60 -35 -161 -67 -99 -31 -175 -77 -175 -105 0 -15
44 -35 78 -35 42 0 72 -11 72 -25 0 -10 23 -12 99 -10 123 5 166 24 266 122
80 77 101 113 114 198 5 33 12 68 16 78 4 9 6 17 4 16 -2 0 -31 -10 -64 -22z"/>
<path d="M4574 6391 c-80 -29 -148 -68 -238 -138 -27 -21 -56 -42 -64 -48 -9
-5 -25 -18 -36 -28 -38 -34 -109 -59 -220 -79 -197 -34 -208 -38 -221 -78 -12
-34 -11 -36 30 -77 27 -27 52 -43 67 -43 13 0 33 -7 45 -15 29 -20 256 -26
274 -7 7 6 24 12 38 12 20 0 41 12 106 62 6 4 34 26 63 49 107 82 180 183 212
294 12 39 25 80 30 92 5 12 6 24 2 27 -5 3 -44 -8 -88 -23z"/>
</g>
</svg>
